<svg id="Capa_1" enable-background="new 0 0 512.003 512.003" height="512" viewBox="0 0 512.003 512.003" width="512" xmlns="http://www.w3.org/2000/svg"><g><g><path d="m434.872 249.901-11.62 34.87-23.57-23.57c-6.42-6.42-6.42-16.82 0-23.24 3.21-3.21 7.42-4.82 11.62-4.82s8.41 1.61 11.62 4.82l2.94 2.93z" fill="#9be69d"/><path d="m434.872 249.901-4.72 14.15-26.09-26.09c-.69-.69-1.42-1.3-2.19-1.84 2.82-1.99 6.13-2.98 9.43-2.98 4.2 0 8.41 1.61 11.62 4.82z" fill="#6fd7a3"/><path d="m434.872 249.901-11.62 34.87-20.34-20.34c.64-1.03 1.41-2.01 2.31-2.91l20.64-20.63z" fill="#6fd7a3"/><path d="m344.499 212.183h-23.338l-7.586-37.148 7.586-37.147h23.338c14.185 0 25.684 11.499 25.684 25.684v22.926c0 14.186-11.499 25.685-25.684 25.685z" fill="#ffcebf"/><path d="m370.182 163.571v22.93c0 14.18-11.5 25.68-25.68 25.68h-21.4c14.18 0 25.68-11.5 25.68-25.68v-22.93c0-14.18-11.5-25.68-25.68-25.68h21.4c14.18 0 25.68 11.5 25.68 25.68z" fill="#ffb09e"/><path d="m89.55 212.183h23.338l9.601-37.148-9.601-37.147h-23.338c-14.185 0-25.684 11.499-25.684 25.684v22.926c0 14.186 11.499 25.685 25.684 25.685z" fill="#ffcebf"/><path d="m112.892 137.891 9.598 37.145-9.598 37.145h-23.34v-74.29z" fill="#ffb09e"/><path d="m417.366 504.501h-400.726l28.059-97.911c5.74-25.072 22.258-45.085 43.683-55.183 9.813-4.622 20.643-7.172 31.95-7.172h193.343c11.327 0 22.177 2.56 32 7.203 21.395 10.098 37.893 30.091 43.632 55.152z" fill="#eaf6ff"/><path d="m417.362 504.501h-28.15l-28.06-97.91c-5.74-25.06-22.24-45.06-43.63-55.15-9.83-4.65-20.68-7.21-32-7.21h28.15c11.33 0 22.18 2.56 32 7.21 21.4 10.09 37.9 30.09 43.63 55.15z" fill="#c8effe"/><path d="m256.35 289.577h-78.698v54.66l15.183 15.539c13.256 13.567 35.081 13.566 48.336-.002l15.179-15.537z" fill="#ffcebf"/><path d="m256.352 289.581v54.66l-15.18 15.53c-9.71 9.94-24.02 12.6-36.19 7.97 4.44-1.68 8.6-4.34 12.14-7.97l15.18-15.53v-54.66z" fill="#ffb09e"/><path d="m345.675 351.437c-9.823-4.643-20.673-7.203-32-7.203h-24.117v66.018h-145.069v-66.018h-24.158c-11.307 0-22.136 2.55-31.95 7.172v58.845h-.005v94.248h257.295v-94.244h.003v-58.818z" fill="#9be69d"/><path d="m120.332 344.231h24.16v66.02h-28.16v-65.91c1.33-.07 2.66-.11 4-.11z" fill="#6fd7a3"/><path d="m345.672 351.441v153.06h-28.16v-94.24h.01v-58.82c-8.66-4.1-18.1-6.57-27.97-7.1v-.11h24.12c11.33 0 22.18 2.56 32 7.21z" fill="#6fd7a3"/><path d="m165.001 457.377h104.004v47.124h-104.004z" fill="#fea613"/><path d="m243.102 457.381h25.9v47.12h-25.9z" fill="#fe9901"/><path d="m486.255 447.473h-102.772c-5.031 0-9.11-4.079-9.11-9.11v-19.801c0-5.031 4.079-9.11 9.11-9.11h102.772c5.031 0 9.11 4.079 9.11 9.11v19.801c0 5.032-4.079 9.11-9.11 9.11z" fill="#ffcebf"/><path d="m495.362 418.561v19.8c0 5.03-4.08 9.11-9.11 9.11h-15.97c5.03 0 9.11-4.08 9.11-9.11v-19.8c0-5.03-4.08-9.11-9.11-9.11h15.97c5.03 0 9.11 4.08 9.11 9.11z" fill="#ffb09e"/><path d="m383.483 447.473h102.772v57.028h-102.772z" fill="#e49280"/><path d="m466.252 447.471h20v57.03h-20z" fill="#dd7f66"/><path d="m470.055 237.96c-6.418-6.418-16.823-6.418-23.241 0l-23.565 23.565c-6.418 6.418-6.418 16.823 0 23.241 6.418 6.418 16.823 6.418 23.241 0l23.565-23.565c6.418-6.418 6.418-16.823 0-23.241z" fill="#9be69d"/><path d="m470.055 237.96c-6.418-6.418-16.823-6.418-23.241 0l-23.565 23.565c-6.418 6.418-6.418 16.823 0 23.241 6.418 6.418 16.823 6.418 23.241 0l23.565-23.565c6.418-6.418 6.418-16.823 0-23.241z" fill="#9be69d"/><path d="m470.052 261.201-23.56 23.57c-3.21 3.21-7.42 4.81-11.62 4.81-3.15 0-6.29-.89-9.01-2.68.92-.61 1.8-1.32 2.61-2.13l23.56-23.57c6.42-6.42 6.42-16.82 0-23.24-.81-.81-1.69-1.52-2.61-2.13 6.37-4.19 15.02-3.48 20.63 2.13 6.42 6.42 6.42 16.82 0 23.24z" fill="#6fd7a3"/><path d="m383.249 306.361c6.418-6.418 16.823-6.418 23.241 0l23.565 23.565c6.418 6.418 6.418 16.823 0 23.241-6.418 6.418-16.823 6.418-23.241 0l-23.565-23.565c-6.417-6.418-6.417-16.823 0-23.241z" fill="#9be69d"/><path d="m430.052 353.171c-3.21 3.21-7.41 4.81-11.62 4.81-2.75 0-5.51-.69-7.98-2.07 1.3-.72 2.53-1.64 3.63-2.74 6.41-6.42 6.41-16.83 0-23.24l-23.57-23.57c-1.1-1.1-2.33-2.02-3.63-2.74 6.24-3.49 14.29-2.58 19.61 2.74l23.56 23.57c6.42 6.41 6.42 16.82 0 23.24z" fill="#6fd7a3"/><path d="m486.489 328.518c-6.418-6.418-16.823-6.418-23.241 0l-23.565 23.565c-6.418 6.418-6.418 16.823 0 23.241 6.418 6.418 16.823 6.418 23.241 0l23.565-23.565c6.418-6.417 6.418-16.823 0-23.241z" fill="#9be69d"/><path d="m486.492 351.761-23.57 23.56c-3.21 3.21-7.42 4.82-11.62 4.82-2.84 0-5.68-.73-8.21-2.2 1.22-.71 2.36-1.58 3.4-2.62l23.56-23.56c6.42-6.42 6.42-16.82 0-23.24-1.04-1.04-2.18-1.91-3.4-2.61 6.28-3.64 14.46-2.77 19.84 2.61 6.41 6.42 6.41 16.82 0 23.24z" fill="#6fd7a3"/><path d="m321.162 109.081v103.1h-208.27v-103.1l104.13-26.63z" fill="#ffcebf"/><path d="m321.162 109.081v103.1h-23.34v-109.07z" fill="#ffb09e"/><path d="m321.162 212.181v16.95c0 38.99-31.61 70.59-70.59 70.59h-67.09c-38.99 0-70.59-31.6-70.59-70.59v-16.95z" fill="#766e6e"/><path d="m321.162 212.181v16.95c0 38.99-31.61 70.59-70.59 70.59h-23.34c38.98 0 70.59-31.6 70.59-70.59v-16.95z" fill="#5b5555"/><path d="m217.025 223.383h-.049c-8.263 0-14.962-6.699-14.962-14.962v-23.177c0-8.263 6.699-14.962 14.962-14.962h.049c8.263 0 14.962 6.699 14.962 14.962v23.177c0 8.263-6.699 14.962-14.962 14.962z" fill="#ffb09e"/><path d="m364.782 82.447h-295.515c-7.353 0-13.314 5.961-13.314 13.314 0 7.353 5.961 13.314 13.314 13.314h295.515c7.353 0 13.314-5.961 13.314-13.314 0-7.353-5.961-13.314-13.314-13.314z" fill="#e49280"/><path d="m378.092 95.761c0 7.35-5.96 13.32-13.31 13.32h-23.65c7.35 0 13.31-5.97 13.31-13.32 0-3.68-1.49-7-3.9-9.41s-5.74-3.9-9.41-3.9h23.65c3.68 0 7 1.49 9.41 3.9s3.9 5.73 3.9 9.41z" fill="#dd7f66"/><path d="m286.057 7.735-57.791 6.302c-7.489.817-15.044.817-22.532 0l-57.786-6.302c-20.274-2.211-38.862 11.474-42.772 31.49l-8.443 43.222h240.54l-8.443-43.223c-3.91-20.015-22.499-33.7-42.773-31.489z" fill="#e49280"/><path d="m337.272 82.451h-21.34l-8.44-43.23c-3.02-15.45-14.79-27.13-29.33-30.63l7.9-.86c20.27-2.21 38.86 11.48 42.77 31.49z" fill="#dd7f66"/><path d="m146.68 109.076h-57.13v28.813h28.317c15.913 0 28.813-12.9 28.813-28.813z" fill="#766e6e"/><path d="m146.682 109.081c0 15.91-12.9 28.81-28.82 28.81h-24.16c15.92 0 28.82-12.9 28.82-28.81z" fill="#5b5555"/><path d="m287.369 109.076h57.13v28.813h-28.317c-15.913 0-28.813-12.9-28.813-28.813z" fill="#766e6e"/><path d="m321.162 109.081h23.34v28.81h-23.34z" fill="#5b5555"/></g><g><path d="m226.807 250.997c-2.565 2.759-6.048 4.278-9.807 4.278s-7.241-1.52-9.807-4.279c-2.822-3.032-7.566-3.205-10.6-.384-3.033 2.821-3.205 7.566-.384 10.6 5.357 5.76 12.935 9.063 20.792 9.063s15.435-3.304 20.791-9.063c2.821-3.033 2.648-7.779-.385-10.6-3.034-2.82-7.78-2.648-10.6.385z"/><path d="m269.005 449.877h-104.004c-4.142 0-7.5 3.358-7.5 7.5v47.124c0 4.142 3.358 7.5 7.5 7.5s7.5-3.358 7.5-7.5v-39.624h89.004v39.624c0 4.142 3.357 7.5 7.5 7.5s7.5-3.358 7.5-7.5v-47.124c0-4.142-3.357-7.5-7.5-7.5z"/><path d="m486.255 401.952h-43.887v-16.048c2.859 1.146 5.896 1.723 8.934 1.723 6.129 0 12.259-2.333 16.925-6.999l23.565-23.565c9.331-9.332 9.331-24.516 0-33.848h-.001c-9.33-9.331-24.516-9.331-33.848 0l-15.575 15.576v-42.945c3.446-1.132 6.69-3.042 9.425-5.776l23.565-23.565c9.331-9.332 9.331-24.516 0-33.848h-.001c-9.33-9.331-24.516-9.331-33.848 0l-6.641 6.641-6.642-6.642c-9.33-9.331-24.516-9.331-33.848 0-9.331 9.332-9.331 24.516 0 33.848l23.565 23.565c2.112 2 5.06 4.164 9.424 5.776v20.786l-15.574-15.574c-9.333-9.333-24.518-9.332-33.849 0s-9.331 24.516 0 33.848l23.565 23.565c4.666 4.666 10.795 6.999 16.924 6.999 3.038 0 6.074-.577 8.934-1.723v38.206h-31.483c-6.724-25.528-23.72-46.305-47.006-57.296-9.607-4.645-22.769-7.978-35.205-7.922-.015.003-49.825.005-49.825.005v-30.663c13.349-2.309 25.979-8.064 36.493-16.769 3.19-2.642 3.636-7.369.994-10.56-2.642-3.19-7.369-3.635-10.561-.994-11.269 9.33-25.547 14.468-40.206 14.468h-67.091c-34.788 0-63.09-28.302-63.09-63.091v-9.448h77.165c3.894 6.69 11.139 11.2 19.423 11.2h.049c8.283 0 15.528-4.51 19.422-11.2h77.214v9.448c0 7.39-1.263 14.622-3.754 21.495-1.412 3.894.601 8.195 4.495 9.607.844.306 1.706.451 2.555.451 3.067 0 5.946-1.896 7.052-4.946 3.087-8.516 4.652-17.467 4.652-26.606v-9.448h15.839c18.298 0 33.184-14.887 33.184-33.185v-22.925c0-15.718-10.988-28.909-25.684-32.319v-14.678h12.782c11.478 0 20.814-9.337 20.814-20.814s-9.337-20.814-20.814-20.814h-21.331l-7.26-37.161c-2.252-11.53-8.703-21.716-18.163-28.682s-21.101-10.104-32.783-8.826l-57.791 6.302c-6.936.756-13.969.757-20.906 0l-57.785-6.301c-11.682-1.275-23.322 1.86-32.783 8.825s-15.912 17.151-18.164 28.682l-7.259 37.161h-21.289c-11.477 0-20.814 9.337-20.814 20.814s9.337 20.814 20.814 20.814h12.783v14.678c-14.696 3.41-25.685 16.601-25.685 32.319v22.925c0 18.298 14.887 33.185 33.185 33.185h15.838v9.448c0 38.514 28.034 70.584 64.763 76.93v30.674h-49.82c-10.692-.111-24.148 2.624-35.149 7.889-24.155 11.385-41.548 33.278-47.748 60.09l-28.004 97.721c-1.141 3.981 1.162 8.135 5.144 9.276.69.198 1.385.292 2.069.292 3.262 0 6.263-2.145 7.207-5.436l28.059-97.911c.037-.13.071-.261.101-.392 4.159-18.167 14.443-33.609 28.872-43.828l-.004 140.066c0 4.142 3.358 7.5 7.5 7.5s7.5-3.358 7.5-7.5v-86.744h242.295v86.744c0 4.142 3.357 7.5 7.5 7.5s7.5-3.358 7.5-7.5v-94.186c0-.02.003-.038.003-.058v-45.78c12.781 9.068 22.278 22.251 27.164 37.783-7.659 1.475-13.465 8.219-13.465 16.302v19.801c0 6.458 3.713 12.054 9.109 14.8v51.337c0 4.142 3.357 7.5 7.5 7.5s7.5-3.358 7.5-7.5v-49.528h6.497c4.143 0 7.5-3.358 7.5-7.5s-3.357-7.5-7.5-7.5h-13.997c-.888 0-1.609-.722-1.609-1.609v-19.801c0-.888.722-1.61 1.609-1.61h6.617c.008 0 .016.002.024.002.009 0 .019-.002.028-.002h96.104c.888 0 1.609.722 1.609 1.61v19.801c0 .887-.722 1.609-1.609 1.609h-54.566c-4.143 0-7.5 3.358-7.5 7.5s3.357 7.5 7.5 7.5h47.066v49.528c0 4.142 3.357 7.5 7.5 7.5s7.5-3.358 7.5-7.5v-51.337c5.396-2.746 9.109-8.341 9.109-14.8v-19.801c-.001-9.159-7.452-16.611-16.611-16.611zm-41.269-44.565 23.564-23.565c1.742-1.742 4.03-2.613 6.317-2.613 2.288 0 4.576.871 6.318 2.613h-.001c3.483 3.483 3.483 9.151 0 12.635l-23.564 23.565c-3.485 3.484-9.153 3.483-12.635 0-3.483-3.484-3.483-9.152.001-12.635zm-20.234-9.523c-3.483 3.484-9.152 3.482-12.634 0l-23.565-23.565c-3.483-3.483-3.483-9.151 0-12.635 1.741-1.742 4.029-2.612 6.316-2.612 2.288 0 4.576.871 6.317 2.612l23.565 23.565c3.485 3.484 3.485 9.151.001 12.635zm33.682-107.213c2.288 0 4.576.871 6.318 2.613h-.001c3.483 3.483 3.483 9.151 0 12.635l-23.564 23.565c-3.482 3.484-9.15 3.484-12.635 0-3.483-3.483-3.483-9.151 0-12.635l23.564-23.565c1.743-1.742 4.031-2.613 6.318-2.613zm-53.448 2.612c3.484-3.483 9.152-3.483 12.635 0l6.641 6.642-6.317 6.317c-2.234 2.234-3.917 4.808-5.082 7.552l-7.876-7.877c-3.484-3.483-3.484-9.151-.001-12.634zm-251.589-126.687h127.256c3.297 15.637 16.686 27.589 33.008 28.716v59.392h-74.174v-19.439c0-12.386-10.076-22.462-22.511-22.462-12.386 0-22.462 10.077-22.462 22.462v19.439h-74.125v-59.392c16.322-1.127 29.711-13.079 33.008-28.716zm63.628 99.308h-.049c-4.115 0-7.462-3.348-7.462-7.462v-23.177c0-4.115 3.348-7.462 7.511-7.462 4.115 0 7.462 3.348 7.462 7.462v23.177c0 4.114-3.347 7.462-7.462 7.462zm145.658-52.31v22.925c0 10.027-8.157 18.185-18.184 18.185h-15.839v-11.215c0-10.14 11.169-12.127 12.484-12.326 4.08-.576 6.936-4.34 6.384-8.43-.555-4.104-4.321-6.982-8.437-6.429-2.914.393-6.687 1.453-10.432 3.37v-24.265h15.839c10.028 0 18.185 8.158 18.185 18.185zm-25.684-33.185h-20.817c-9.113 0-16.909-5.75-19.95-13.813h40.768v13.813zm-273.546-34.627c0-3.206 2.608-5.814 5.814-5.814h68.615c4.142 0 7.5-3.358 7.5-7.5s-3.358-7.5-7.5-7.5h-32.042l6.697-34.285c3.136-16.058 18.325-27.246 34.599-25.472l57.785 6.302c8.016.875 16.143.875 24.159 0l57.791-6.302c16.256-1.771 31.461 9.416 34.598 25.473l6.697 34.285h-154.62c-4.142 0-7.5 3.358-7.5 7.5s3.358 7.5 7.5 7.5h191.236c3.206 0 5.814 2.608 5.814 5.814s-2.608 5.814-5.814 5.814h-295.515c-3.206-.001-5.814-2.609-5.814-5.815zm74.365 20.814c-3.041 8.063-10.837 13.813-19.951 13.813h-20.817v-13.813zm-66.452 69.923v-22.925c0-10.027 8.158-18.185 18.185-18.185h15.838v24.265c-3.745-1.917-7.518-2.977-10.432-3.37-4.096-.553-7.908 2.321-8.462 6.425-.554 4.105 2.298 7.878 6.403 8.433 1.278.192 12.491 2.167 12.491 12.327v11.215h-15.839c-10.027-.001-18.184-8.158-18.184-18.185zm103.125 165.236 12.978 13.283c7.834 8.018 18.323 12.434 29.534 12.433 11.21 0 21.698-4.417 29.532-12.436l12.969-13.274 22.553-.003v51.014h-130.068v-51.018h22.502zm10.66-44.513h63.698v33.959l-13.044 13.351c-4.988 5.105-11.666 7.917-18.803 7.918s-13.816-2.811-18.804-7.917l-13.047-13.353zm111.906 95.53v-51.016c15.158.328 23.914-1.638 41.118 4.646v46.369h-41.118zm-160.068-51.017v51.018h-41.107v-46.393c9.515-4.806 29.043-4.973 41.107-4.625z"/></g></g></svg>